<svg width="184" height="26" viewBox="0 0 184 26" fill="none" xmlns="http://www.w3.org/2000/svg">
<path d="M17.944 3.336C18.1787 3.61333 18.296 3.90133 18.296 4.2C18.296 4.328 18.2853 4.46667 18.264 4.616C18.264 4.744 18.2533 4.86133 18.232 4.968C18.168 5.20267 18.0293 5.42667 17.816 5.64C17.6453 5.768 17.4107 5.864 17.112 5.928C16.9627 5.97067 16.8133 6.00267 16.664 6.024C16.5147 6.04533 16.3547 6.07733 16.184 6.12C16.0347 6.14133 15.8853 6.152 15.736 6.152C15.5867 6.152 15.4267 6.152 15.256 6.152H13.624C13.24 6.17333 12.856 6.184 12.472 6.184C12.1093 6.184 11.7467 6.184 11.384 6.184C11.4053 6.84533 11.416 7.56 11.416 8.328C11.416 9.07467 11.4053 9.94933 11.384 10.952C11.384 11.9547 11.3733 13.1173 11.352 14.44C11.352 15.7627 11.352 17.2987 11.352 19.048V21.48C11.352 21.6933 11.3627 21.8533 11.384 21.96C11.384 22.0453 11.384 22.1307 11.384 22.216C11.384 22.28 11.3733 22.3653 11.352 22.472C11.3093 22.664 11.2773 22.888 11.256 23.144C11.256 23.2507 11.2453 23.3573 11.224 23.464C11.2027 23.5493 11.1707 23.6453 11.128 23.752C11.0427 23.8373 11 23.9013 11 23.944L10.904 24.136C10.7973 24.3493 10.5947 24.552 10.296 24.744C9.82667 24.9787 9.304 25.032 8.728 24.904C8.36533 24.8613 8.088 24.7653 7.896 24.616C7.704 24.424 7.56533 24.232 7.48 24.04C7.352 23.8053 7.27733 23.5813 7.256 23.368C7.192 23.176 7.16 22.9733 7.16 22.76V6.312C7.032 6.312 6.76533 6.312 6.36 6.312C5.95467 6.312 5.51733 6.312 5.048 6.312C4.6 6.29067 4.17333 6.26933 3.768 6.248C3.36267 6.22667 3.08533 6.20533 2.936 6.184C2.808 6.16267 2.60533 6.13067 2.328 6.088C2.072 6.04533 1.85867 6.00267 1.688 5.96C1.24 5.832 0.888 5.62933 0.632 5.352C0.397333 5.07467 0.28 4.76533 0.28 4.424C0.28 4.296 0.28 4.168 0.28 4.04C0.28 3.912 0.301333 3.79467 0.344 3.688C0.408 3.432 0.578667 3.21867 0.856 3.048C0.941333 2.984 1.06933 2.90933 1.24 2.824C1.432 2.71733 1.61333 2.64267 1.784 2.6C2.04 2.51466 2.36 2.45067 2.744 2.408C2.91467 2.38667 3.08533 2.376 3.256 2.376C3.42667 2.376 3.608 2.376 3.8 2.376C4.54667 2.376 5.25067 2.376 5.912 2.376C6.59467 2.376 7.30933 2.36533 8.056 2.344C9.29333 2.32267 10.52 2.32267 11.736 2.344C12.9733 2.344 14.2 2.36533 15.416 2.408C15.6933 2.42933 15.96 2.46133 16.216 2.504C16.472 2.54667 16.728 2.62133 16.984 2.728C17.176 2.792 17.3573 2.87733 17.528 2.984C17.6987 3.06933 17.8373 3.18667 17.944 3.336ZM20.8455 10.536C21.5495 10.1947 22.2855 9.94933 23.0535 9.8C23.8215 9.65067 24.5788 9.61867 25.3255 9.704C26.0935 9.78933 26.8295 9.992 27.5335 10.312C28.2588 10.632 28.9202 11.08 29.5175 11.656C30.0082 12.1467 30.4348 12.744 30.7975 13.448C31.1602 14.1307 31.4268 14.8027 31.5975 15.464C31.9602 16.6373 32.0135 17.8213 31.7575 19.016C31.5015 20.2107 31.0642 21.32 30.4455 22.344C30.1468 22.8133 29.7735 23.24 29.3255 23.624C28.8988 23.9867 28.4402 24.2853 27.9495 24.52C27.3095 24.8187 26.6162 25.0213 25.8695 25.128C25.1228 25.256 24.3975 25.288 23.6935 25.224C22.4135 25.16 21.2828 24.84 20.3015 24.264C19.3415 23.688 18.5628 22.952 17.9655 22.056C17.3895 21.16 17.0055 20.1467 16.8135 19.016C16.6428 17.864 16.7175 16.6907 17.0375 15.496C17.3788 14.216 17.8695 13.1813 18.5095 12.392C19.1708 11.5813 19.9495 10.9627 20.8455 10.536ZM21.8055 14.824C21.4855 15.1227 21.2402 15.496 21.0695 15.944C20.8988 16.392 20.7922 16.8613 20.7495 17.352C20.7068 17.8213 20.7388 18.3013 20.8455 18.792C20.9735 19.2613 21.1655 19.688 21.4215 20.072C21.6348 20.392 22.0188 20.6587 22.5735 20.872C23.1282 21.0853 23.7042 21.2133 24.3015 21.256C24.9842 21.2987 25.5815 21.1173 26.0935 20.712C26.6055 20.2853 26.9895 19.7627 27.2455 19.144C27.5228 18.5253 27.6508 17.8533 27.6295 17.128C27.6082 16.4027 27.4162 15.7413 27.0535 15.144C26.7975 14.7173 26.4348 14.408 25.9655 14.216C25.5175 14.0027 25.0375 13.896 24.5255 13.896C24.0348 13.8747 23.5442 13.9493 23.0535 14.12C22.5628 14.2693 22.1468 14.504 21.8055 14.824ZM47.6195 17.384C47.5768 18.088 47.5342 18.8027 47.4915 19.528C47.4488 20.232 47.3315 20.9147 47.1395 21.576C46.9688 22.2373 46.6915 22.8347 46.3075 23.368C45.9448 23.9013 45.4222 24.328 44.7395 24.648C44.1422 24.9467 43.5022 25.1493 42.8195 25.256C42.1368 25.384 41.4542 25.4373 40.7715 25.416C40.0888 25.3947 39.4275 25.288 38.7875 25.096C38.1475 24.9253 37.5715 24.68 37.0595 24.36C36.5475 24.04 36.1315 23.624 35.8115 23.112C35.4915 22.6 35.2355 22.0453 35.0435 21.448C34.8728 20.8507 34.7555 20.232 34.6915 19.592C34.6275 18.952 34.5848 18.3547 34.5635 17.8C34.4782 16.328 34.4782 14.8773 34.5635 13.448C34.5635 13.1707 34.5635 12.8613 34.5635 12.52C34.5635 12.1573 34.5848 11.8053 34.6275 11.464C34.6915 11.1227 34.7875 10.8133 34.9155 10.536C35.0435 10.2373 35.2568 10.0133 35.5555 9.864C36.1955 9.52267 36.7822 9.50133 37.3155 9.8C37.8702 10.0987 38.2008 10.7173 38.3075 11.656C38.3715 12.1467 38.3928 12.6907 38.3715 13.288C38.3715 13.8853 38.3928 14.4293 38.4355 14.92C38.4568 15.6453 38.4782 16.4347 38.4995 17.288C38.5208 18.12 38.6382 18.8667 38.8515 19.528C39.0862 20.1893 39.4595 20.6907 39.9715 21.032C40.5048 21.352 41.2942 21.3627 42.3395 21.064C42.8302 20.9147 43.1502 20.5413 43.2995 19.944C43.4702 19.3467 43.5555 18.4613 43.5555 17.288C43.5555 16.776 43.5448 16.2107 43.5235 15.592C43.5022 14.9733 43.4915 14.3653 43.4915 13.768C43.4915 13.1493 43.5022 12.584 43.5235 12.072C43.5662 11.5387 43.6302 11.1333 43.7155 10.856C43.8222 10.472 44.0462 10.184 44.3875 9.992C44.7288 9.8 45.0915 9.704 45.4755 9.704C45.8595 9.68267 46.2222 9.75733 46.5635 9.928C46.9048 10.0987 47.1395 10.376 47.2675 10.76C47.3955 11.1013 47.4808 11.5387 47.5235 12.072C47.5875 12.584 47.6302 13.1493 47.6515 13.768C47.6728 14.3653 47.6728 14.984 47.6515 15.624C47.6515 16.2427 47.6408 16.8293 47.6195 17.384ZM50.2808 13.672C50.2808 13.416 50.2808 13.128 50.2808 12.808C50.2808 12.4667 50.2914 12.1253 50.3128 11.784C50.3341 11.4213 50.3661 11.08 50.4088 10.76C50.4728 10.4187 50.5581 10.12 50.6648 9.864C50.8354 9.48 51.1021 9.224 51.4648 9.096C51.8274 8.94667 52.2221 8.88267 52.6488 8.904C53.0968 8.904 53.4488 8.97867 53.7048 9.128C53.9608 9.27733 54.1528 9.48 54.2808 9.736C54.4088 9.97067 54.4834 10.248 54.5048 10.568C54.5474 10.8667 54.5688 11.1867 54.5688 11.528C54.7608 11.1867 55.0168 10.9093 55.3368 10.696C55.6781 10.4827 56.0194 10.312 56.3608 10.184C56.7021 10.056 57.0114 9.97067 57.2888 9.928C57.5661 9.864 57.7261 9.832 57.7688 9.832C58.3021 9.78933 58.7821 9.77867 59.2088 9.8C59.6568 9.82133 60.1474 9.91733 60.6808 10.088C61.0221 10.216 61.3741 10.3973 61.7368 10.632C62.0994 10.8453 62.4194 11.1013 62.6968 11.4C62.9741 11.6987 63.1554 12.0293 63.2408 12.392C63.3474 12.7333 63.3048 13.096 63.1128 13.48C62.8141 14.0133 62.4834 14.28 62.1208 14.28C61.7581 14.2587 61.3634 14.1947 60.9368 14.088C60.7021 14.0453 60.4248 13.9493 60.1048 13.8C59.7848 13.6507 59.5074 13.5547 59.2728 13.512C58.5474 13.4053 57.9074 13.4587 57.3528 13.672C56.7981 13.8853 56.3181 14.1413 55.9128 14.44C55.4434 14.8027 55.0381 15.2187 54.6968 15.688V20.296C54.6968 20.872 54.6861 21.4693 54.6648 22.088C54.6648 22.7067 54.5794 23.272 54.4088 23.784C54.2594 24.2747 53.9928 24.68 53.6088 25C53.2461 25.2987 52.7128 25.4267 52.0088 25.384C51.6248 25.3627 51.2834 25.1813 50.9848 24.84C50.6861 24.4773 50.5048 24.1253 50.4408 23.784C50.3981 23.464 50.3661 23.08 50.3448 22.632C50.3234 22.184 50.3021 21.7147 50.2808 21.224C50.2808 20.7333 50.2808 20.2427 50.2808 19.752C50.2808 19.24 50.2808 18.7707 50.2808 18.344V13.672ZM65.9058 13.576C65.9058 13.0853 65.8951 12.5627 65.8738 12.008C65.8738 11.4533 65.9698 10.952 66.1618 10.504C66.3324 10.0987 66.6098 9.81067 66.9938 9.64C67.3991 9.448 67.7938 9.40533 68.1778 9.512C68.5618 9.576 68.8604 9.69333 69.0738 9.864C69.2871 10.0347 69.4364 10.2373 69.5218 10.472C69.6284 10.6853 69.6924 10.9413 69.7138 11.24C69.7351 11.5173 69.7564 11.7947 69.7778 12.072C69.9911 11.688 70.2578 11.3787 70.5778 11.144C70.8978 10.9093 71.2284 10.7173 71.5698 10.568C71.9111 10.4187 72.2311 10.312 72.5298 10.248C72.8498 10.184 73.0951 10.152 73.2658 10.152C74.0764 10.152 74.8764 10.3333 75.6658 10.696C76.4764 11.0373 77.1484 11.528 77.6818 12.168C77.9804 12.552 78.2044 12.9573 78.3538 13.384C78.5244 13.7893 78.6418 14.216 78.7058 14.664C78.7911 15.112 78.8444 15.5707 78.8658 16.04C78.8871 16.488 78.9084 16.9467 78.9298 17.416C79.0364 18.7813 79.0364 20.136 78.9298 21.48C78.9084 21.7573 78.8978 22.0773 78.8978 22.44C78.8978 22.8027 78.8658 23.1653 78.8018 23.528C78.7591 23.8693 78.6631 24.1787 78.5138 24.456C78.3858 24.712 78.1618 24.872 77.8418 24.936C77.3938 25.0427 77.0204 25.064 76.7218 25C76.4444 24.9573 76.2204 24.8613 76.0498 24.712C75.8791 24.5627 75.7511 24.3707 75.6658 24.136C75.5804 23.9013 75.5058 23.6347 75.4418 23.336C75.3991 23.1013 75.3564 22.8347 75.3138 22.536C75.2924 22.216 75.2711 21.896 75.2498 21.576C75.2498 21.256 75.2391 20.9467 75.2178 20.648C75.2178 20.328 75.2178 20.04 75.2178 19.784C75.2178 19.3787 75.2071 18.9307 75.1858 18.44C75.1644 17.9493 75.1644 17.4907 75.1858 17.064C75.1858 16.0613 74.9191 15.304 74.3858 14.792C73.8738 14.2587 73.1698 14.0347 72.2738 14.12C71.5911 14.2053 70.9938 14.4827 70.4818 14.952C69.9698 15.4 69.7244 15.9867 69.7458 16.712C69.7458 16.9893 69.7458 17.2453 69.7458 17.48C69.7458 17.7147 69.7351 17.9493 69.7138 18.184C69.7138 18.4187 69.7138 18.6747 69.7138 18.952C69.7138 19.2293 69.7138 19.5387 69.7138 19.88C69.7138 20.584 69.7138 21.3307 69.7138 22.12C69.7138 22.888 69.6178 23.5173 69.4258 24.008C69.2551 24.52 68.9671 24.872 68.5618 25.064C68.1564 25.256 67.6764 25.2027 67.1218 24.904C66.8871 24.776 66.6951 24.6053 66.5458 24.392C66.4178 24.1573 66.3111 23.912 66.2258 23.656C66.1618 23.4 66.1191 23.144 66.0978 22.888C66.0764 22.6107 66.0551 22.3547 66.0338 22.12C65.9698 21.416 65.9271 20.7653 65.9058 20.168C65.9058 19.5493 65.9058 18.888 65.9058 18.184V13.576ZM92.6645 20.616C92.9205 20.552 93.1765 20.5093 93.4325 20.488C93.7098 20.4667 93.9552 20.4987 94.1685 20.584C94.4032 20.6693 94.5952 20.8187 94.7445 21.032C94.8938 21.224 94.9685 21.5013 94.9685 21.864C94.9685 22.12 94.9045 22.3653 94.7765 22.6C94.6485 22.8347 94.4885 23.048 94.2965 23.24C94.1045 23.432 93.8912 23.6027 93.6565 23.752C93.4218 23.88 93.1978 23.9867 92.9845 24.072C92.3658 24.3493 91.6512 24.5627 90.8405 24.712C90.0512 24.8613 89.2298 24.9147 88.3765 24.872C87.2245 24.8293 86.1152 24.6053 85.0485 24.2C84.0032 23.7733 83.1818 23.08 82.5845 22.12C82.0298 21.1813 81.6992 20.136 81.5925 18.984C81.4858 17.832 81.5392 16.744 81.7525 15.72C81.9872 14.4827 82.3818 13.48 82.9365 12.712C83.5125 11.9227 84.1952 11.2933 84.9845 10.824C85.9445 10.2693 87.0218 9.98133 88.2165 9.96C89.4112 9.93867 90.5525 10.1733 91.6405 10.664C92.3658 10.984 93.0165 11.4213 93.5925 11.976C94.1685 12.5093 94.6058 13.16 94.9045 13.928C94.9898 14.12 95.0538 14.3547 95.0965 14.632C95.1605 14.9093 95.2032 15.208 95.2245 15.528C95.2458 15.8267 95.2458 16.1253 95.2245 16.424C95.2032 16.7227 95.1498 16.9893 95.0645 17.224C94.9365 17.608 94.7765 17.9067 94.5845 18.12C94.3925 18.3333 94.1472 18.4933 93.8485 18.6C93.5498 18.7067 93.1872 18.7813 92.7605 18.824C92.3552 18.8453 91.8645 18.8667 91.2885 18.888C90.7765 18.9093 90.2965 18.92 89.8485 18.92C89.4005 18.92 88.9418 18.92 88.4725 18.92C88.0032 18.8987 87.5125 18.888 87.0005 18.888C86.5098 18.8667 85.9552 18.8453 85.3365 18.824C85.2725 19.2507 85.3258 19.624 85.4965 19.944C85.6885 20.2427 85.9445 20.4987 86.2645 20.712C86.5845 20.904 86.9472 21.0533 87.3525 21.16C87.7578 21.2667 88.1525 21.3307 88.5365 21.352C89.2618 21.3947 89.9552 21.3413 90.6165 21.192C91.2778 21.0213 91.9605 20.8293 92.6645 20.616ZM91.2885 14.408C90.8832 13.9387 90.4565 13.5973 90.0085 13.384C89.6672 13.2347 89.3045 13.1707 88.9205 13.192C88.5578 13.192 88.2058 13.2453 87.8645 13.352C87.2458 13.5013 86.7232 13.8213 86.2965 14.312C86.2538 14.3547 86.1792 14.4613 86.0725 14.632C85.9658 14.7813 85.8592 14.9413 85.7525 15.112C85.6672 15.2827 85.6032 15.4427 85.5605 15.592C85.5178 15.7413 85.5392 15.816 85.6245 15.816H91.8965C91.8752 15.5173 91.8218 15.272 91.7365 15.08C91.6512 14.8667 91.5018 14.6427 91.2885 14.408ZM97.8433 13.672C97.8433 13.416 97.8433 13.128 97.8433 12.808C97.8433 12.4667 97.8539 12.1253 97.8753 11.784C97.8966 11.4213 97.9286 11.08 97.9713 10.76C98.0353 10.4187 98.1206 10.12 98.2273 9.864C98.3979 9.48 98.6646 9.224 99.0273 9.096C99.3899 8.94667 99.7846 8.88267 100.211 8.904C100.659 8.904 101.011 8.97867 101.267 9.128C101.523 9.27733 101.715 9.48 101.843 9.736C101.971 9.97067 102.046 10.248 102.067 10.568C102.11 10.8667 102.131 11.1867 102.131 11.528C102.323 11.1867 102.579 10.9093 102.899 10.696C103.241 10.4827 103.582 10.312 103.923 10.184C104.265 10.056 104.574 9.97067 104.851 9.928C105.129 9.864 105.289 9.832 105.331 9.832C105.865 9.78933 106.345 9.77867 106.771 9.8C107.219 9.82133 107.71 9.91733 108.243 10.088C108.585 10.216 108.937 10.3973 109.299 10.632C109.662 10.8453 109.982 11.1013 110.259 11.4C110.537 11.6987 110.718 12.0293 110.803 12.392C110.91 12.7333 110.867 13.096 110.675 13.48C110.377 14.0133 110.046 14.28 109.683 14.28C109.321 14.2587 108.926 14.1947 108.499 14.088C108.265 14.0453 107.987 13.9493 107.667 13.8C107.347 13.6507 107.07 13.5547 106.835 13.512C106.11 13.4053 105.47 13.4587 104.915 13.672C104.361 13.8853 103.881 14.1413 103.475 14.44C103.006 14.8027 102.601 15.2187 102.259 15.688V20.296C102.259 20.872 102.249 21.4693 102.227 22.088C102.227 22.7067 102.142 23.272 101.971 23.784C101.822 24.2747 101.555 24.68 101.171 25C100.809 25.2987 100.275 25.4267 99.5713 25.384C99.1873 25.3627 98.8459 25.1813 98.5473 24.84C98.2486 24.4773 98.0673 24.1253 98.0033 23.784C97.9606 23.464 97.9286 23.08 97.9073 22.632C97.8859 22.184 97.8646 21.7147 97.8433 21.224C97.8433 20.7333 97.8433 20.2427 97.8433 19.752C97.8433 19.24 97.8433 18.7707 97.8433 18.344V13.672ZM140.374 17.544C140.417 18.2267 140.438 18.8773 140.438 19.496C140.438 20.0933 140.417 20.7333 140.374 21.416C140.374 21.672 140.374 21.96 140.374 22.28C140.374 22.6 140.353 22.9093 140.31 23.208C140.267 23.5067 140.193 23.784 140.086 24.04C139.979 24.296 139.819 24.4987 139.606 24.648C139.35 24.8187 139.062 24.936 138.742 25C138.422 25.0427 138.123 25.0213 137.846 24.936C137.569 24.8507 137.323 24.6907 137.11 24.456C136.918 24.2213 136.811 23.8907 136.79 23.464C136.726 22.4827 136.694 21.5013 136.694 20.52C136.694 20.0293 136.683 19.56 136.662 19.112C136.662 18.664 136.673 18.0347 136.694 17.224C136.694 16.8187 136.662 16.36 136.598 15.848C136.534 15.3147 136.374 14.9413 136.118 14.728C135.926 14.5573 135.713 14.4613 135.478 14.44C135.243 14.3973 135.009 14.4187 134.774 14.504C134.561 14.5893 134.369 14.7493 134.198 14.984C134.027 15.1973 133.91 15.4747 133.846 15.816C133.846 16.0933 133.835 16.3813 133.814 16.68C133.814 16.9573 133.825 17.224 133.846 17.48C133.867 18.1627 133.878 18.8133 133.878 19.432C133.878 20.0293 133.867 20.6693 133.846 21.352C133.825 21.6293 133.814 21.928 133.814 22.248C133.835 22.568 133.835 22.888 133.814 23.208C133.793 23.5067 133.729 23.784 133.622 24.04C133.537 24.296 133.377 24.4987 133.142 24.648C132.886 24.8187 132.609 24.9253 132.31 24.968C132.033 24.9893 131.766 24.9467 131.51 24.84C131.275 24.712 131.062 24.52 130.87 24.264C130.699 24.008 130.603 23.6667 130.582 23.24C130.539 22.7493 130.507 22.3013 130.486 21.896C130.486 21.4693 130.486 21.0213 130.486 20.552C130.486 20.0613 130.497 19.56 130.518 19.048C130.539 18.5147 130.529 18.0027 130.486 17.512C130.486 17.3627 130.475 17.192 130.454 17C130.454 16.7867 130.443 16.5733 130.422 16.36C130.422 16.1467 130.401 15.944 130.358 15.752C130.337 15.5387 130.294 15.368 130.23 15.24C130.059 14.9413 129.75 14.7493 129.302 14.664C128.875 14.5787 128.513 14.6107 128.214 14.76C127.915 14.9093 127.691 15.1013 127.542 15.336C127.393 15.5707 127.286 15.8267 127.222 16.104C127.158 16.3813 127.126 16.68 127.126 17C127.126 17.2987 127.126 17.5867 127.126 17.864C127.126 19.2507 127.126 20.456 127.126 21.48C127.147 22.4827 127.041 23.2933 126.806 23.912C126.699 24.232 126.475 24.4773 126.134 24.648C125.814 24.8187 125.462 24.904 125.078 24.904C124.715 24.904 124.374 24.8187 124.054 24.648C123.734 24.4773 123.521 24.2107 123.414 23.848C123.35 23.6133 123.286 23.2827 123.222 22.856C123.179 22.408 123.147 21.9173 123.126 21.384C123.105 20.8507 123.094 20.3173 123.094 19.784C123.094 19.2293 123.094 18.728 123.094 18.28V13.672C123.073 13.1813 123.062 12.648 123.062 12.072C123.062 11.496 123.147 10.9733 123.318 10.504C123.467 10.0987 123.702 9.84267 124.022 9.736C124.342 9.608 124.673 9.55467 125.014 9.576C125.398 9.576 125.697 9.68267 125.91 9.896C126.145 10.088 126.315 10.3333 126.422 10.632C126.529 10.9093 126.593 11.2293 126.614 11.592C126.635 11.9333 126.657 12.264 126.678 12.584C126.913 12.0507 127.19 11.6133 127.51 11.272C127.851 10.9093 128.331 10.6747 128.95 10.568C130.529 10.2693 131.787 10.6747 132.726 11.784C133.153 11.3573 133.697 11.0053 134.358 10.728C134.87 10.536 135.393 10.4507 135.926 10.472C136.459 10.472 136.961 10.568 137.43 10.76C137.921 10.952 138.358 11.2293 138.742 11.592C139.147 11.9547 139.467 12.392 139.702 12.904C140.022 13.5867 140.203 14.344 140.246 15.176C140.289 16.008 140.331 16.7973 140.374 17.544ZM147.127 10.536C147.831 10.1947 148.567 9.94933 149.335 9.8C150.103 9.65067 150.86 9.61867 151.607 9.704C152.375 9.78933 153.111 9.992 153.815 10.312C154.54 10.632 155.201 11.08 155.799 11.656C156.289 12.1467 156.716 12.744 157.079 13.448C157.441 14.1307 157.708 14.8027 157.879 15.464C158.241 16.6373 158.295 17.8213 158.039 19.016C157.783 20.2107 157.345 21.32 156.727 22.344C156.428 22.8133 156.055 23.24 155.607 23.624C155.18 23.9867 154.721 24.2853 154.231 24.52C153.591 24.8187 152.897 25.0213 152.151 25.128C151.404 25.256 150.679 25.288 149.975 25.224C148.695 25.16 147.564 24.84 146.583 24.264C145.623 23.688 144.844 22.952 144.247 22.056C143.671 21.16 143.287 20.1467 143.095 19.016C142.924 17.864 142.999 16.6907 143.319 15.496C143.66 14.216 144.151 13.1813 144.791 12.392C145.452 11.5813 146.231 10.9627 147.127 10.536ZM148.087 14.824C147.767 15.1227 147.521 15.496 147.351 15.944C147.18 16.392 147.073 16.8613 147.031 17.352C146.988 17.8213 147.02 18.3013 147.127 18.792C147.255 19.2613 147.447 19.688 147.703 20.072C147.916 20.392 148.3 20.6587 148.855 20.872C149.409 21.0853 149.985 21.2133 150.583 21.256C151.265 21.2987 151.863 21.1173 152.375 20.712C152.887 20.2853 153.271 19.7627 153.527 19.144C153.804 18.5253 153.932 17.8533 153.911 17.128C153.889 16.4027 153.697 15.7413 153.335 15.144C153.079 14.7173 152.716 14.408 152.247 14.216C151.799 14.0027 151.319 13.896 150.807 13.896C150.316 13.8747 149.825 13.9493 149.335 14.12C148.844 14.2693 148.428 14.504 148.087 14.824ZM165.125 12.872C165.125 13.4693 165.125 14.1413 165.125 14.888C165.146 15.6347 165.157 16.4133 165.157 17.224C165.157 18.0133 165.157 18.8027 165.157 19.592C165.157 20.36 165.146 21.0747 165.125 21.736C165.103 22.056 165.071 22.408 165.029 22.792C164.986 23.1547 164.901 23.496 164.773 23.816C164.645 24.136 164.442 24.4027 164.165 24.616C163.909 24.808 163.557 24.8933 163.109 24.872C162.447 24.8293 161.967 24.5413 161.669 24.008C161.391 23.4747 161.231 22.728 161.189 21.768C161.189 21.2773 161.178 20.712 161.157 20.072C161.157 19.432 161.146 18.7813 161.125 18.12C161.125 17.4587 161.125 16.8187 161.125 16.2C161.125 15.56 161.125 14.984 161.125 14.472C161.125 14.1733 161.114 13.8107 161.093 13.384C161.093 12.9573 161.103 12.52 161.125 12.072C161.146 11.624 161.199 11.1973 161.285 10.792C161.37 10.3653 161.509 10.0133 161.701 9.736C161.85 9.56533 162.063 9.43733 162.341 9.352C162.618 9.24533 162.906 9.192 163.205 9.192C163.525 9.192 163.823 9.24533 164.101 9.352C164.399 9.45867 164.613 9.608 164.741 9.8C164.826 9.928 164.89 10.1093 164.933 10.344C164.975 10.5787 165.007 10.8453 165.029 11.144C165.071 11.4213 165.093 11.72 165.093 12.04C165.114 12.3387 165.125 12.616 165.125 12.872ZM163.909 6.408C163.247 6.57867 162.693 6.51467 162.245 6.216C161.818 5.896 161.551 5.42666 161.445 4.808C161.359 4.36 161.391 3.96533 161.541 3.624C161.69 3.28267 161.914 3.02667 162.213 2.856C162.511 2.664 162.853 2.57867 163.237 2.6C163.621 2.62133 164.005 2.77066 164.389 3.048C164.751 3.304 165.007 3.60267 165.157 3.944C165.327 4.28533 165.381 4.616 165.317 4.936C165.274 5.256 165.135 5.55467 164.901 5.832C164.666 6.088 164.335 6.28 163.909 6.408ZM178.97 1.416C179.141 1.13866 179.375 0.935998 179.674 0.807999C179.973 0.679999 180.261 0.615999 180.538 0.615999C180.773 0.615999 180.997 0.626666 181.21 0.647999C181.445 0.647999 181.669 0.669332 181.882 0.711998C182.33 0.839999 182.65 1.128 182.842 1.576C183.034 2.00267 183.151 2.504 183.194 3.08C183.258 3.63467 183.269 4.18933 183.226 4.744C183.205 5.29867 183.194 5.74667 183.194 6.088V15.528C183.194 15.9547 183.194 16.3813 183.194 16.808C183.194 17.2347 183.119 17.64 182.97 18.024C182.821 18.3867 182.543 18.6533 182.138 18.824C181.733 18.9947 181.306 19.08 180.858 19.08C180.41 19.0587 179.983 18.9627 179.578 18.792C179.173 18.6 178.895 18.3333 178.746 17.992C178.682 17.8 178.629 17.5653 178.586 17.288C178.565 16.9893 178.543 16.7227 178.522 16.488C178.501 16.1253 178.49 15.752 178.49 15.368C178.511 14.9627 178.522 14.5573 178.522 14.152V3.432C178.522 3.176 178.554 2.84533 178.618 2.44C178.682 2.03467 178.799 1.69333 178.97 1.416ZM182.65 21.992C182.714 22.0987 182.767 22.2053 182.81 22.312C182.874 22.3973 182.927 22.504 182.97 22.632C183.034 22.8667 183.077 23.112 183.098 23.368C183.119 23.624 183.098 23.88 183.034 24.136C182.97 24.3707 182.863 24.5947 182.714 24.808C182.565 25.0213 182.362 25.1813 182.106 25.288C181.871 25.3947 181.594 25.4587 181.274 25.48C180.954 25.5013 180.645 25.48 180.346 25.416C180.047 25.352 179.77 25.2347 179.514 25.064C179.258 24.8933 179.077 24.6693 178.97 24.392C178.863 24.0933 178.799 23.752 178.778 23.368C178.778 22.9627 178.831 22.6107 178.938 22.312C179.066 21.992 179.269 21.7787 179.546 21.672C179.823 21.544 180.122 21.48 180.442 21.48C180.847 21.4587 181.242 21.4693 181.626 21.512C182.031 21.5547 182.373 21.7147 182.65 21.992Z" fill="white"/>
</svg>
